<?xml version="1.0" encoding="iso-8859-1"?>
<!-- Generator: Adobe Illustrator 19.0.0, SVG Export Plug-In . SVG Version: 6.00 Build 0)  -->
<svg version="1.1" id="Capa_1" xmlns="http://www.w3.org/2000/svg" xmlns:xlink="http://www.w3.org/1999/xlink" x="0px" y="0px"
	 viewBox="0 0 512 512" style="enable-background:new 0 0 512 512;fill:#6ECEFF" xml:space="preserve">
<g>
	<g>
		<g>
			<path d="M309.333,320c5.888,0,10.667-4.779,10.667-10.667v-42.667c0-5.888-4.779-10.667-10.667-10.667
				s-10.667,4.779-10.667,10.667v42.667C298.667,315.221,303.445,320,309.333,320z"/>
			<path d="M437.333,320c5.888,0,10.667-4.779,10.667-10.667v-42.667c0-5.888-4.779-10.667-10.667-10.667
				c-5.888,0-10.667,4.779-10.667,10.667v42.667C426.667,315.221,431.445,320,437.333,320z"/>
			<path d="M394.667,320c5.888,0,10.667-4.779,10.667-10.667v-42.667c0-5.888-4.779-10.667-10.667-10.667S384,260.779,384,266.667
				v42.667C384,315.221,388.779,320,394.667,320z"/>
			<path d="M42.667,288c0,17.643,14.357,32,32,32c17.643,0,32-14.357,32-32s-14.357-32-32-32C57.024,256,42.667,270.357,42.667,288z
				 M74.667,277.333c5.888,0,10.667,4.779,10.667,10.667s-4.779,10.667-10.667,10.667S64,293.888,64,288
				S68.779,277.333,74.667,277.333z"/>
			<path d="M352,320c5.888,0,10.667-4.779,10.667-10.667v-42.667c0-5.888-4.779-10.667-10.667-10.667
				c-5.888,0-10.667,4.779-10.667,10.667v42.667C341.333,315.221,346.112,320,352,320z"/>
			<path d="M74.667,85.333c-17.643,0-32,14.357-32,32c0,17.643,14.357,32,32,32c17.643,0,32-14.357,32-32
				C106.667,99.691,92.309,85.333,74.667,85.333z M74.667,128C68.779,128,64,123.221,64,117.333s4.779-10.667,10.667-10.667
				s10.667,4.779,10.667,10.667S80.555,128,74.667,128z"/>
			<path d="M394.667,85.333C388.779,85.333,384,90.112,384,96v42.667c0,5.888,4.779,10.667,10.667,10.667
				s10.667-4.779,10.667-10.667V96C405.333,90.112,400.555,85.333,394.667,85.333z"/>
			<path d="M458.667,192C488.064,192,512,168.064,512,138.667V96c0-29.397-23.936-53.333-53.333-53.333H53.333
				C23.936,42.667,0,66.603,0,96v42.667C0,168.064,23.936,192,53.333,192H192v21.333H53.333C23.936,213.333,0,237.269,0,266.667
				v42.667c0,29.397,23.936,53.333,53.333,53.333H192V384h-10.667c-5.888,0-10.667,4.779-10.667,10.667v10.667H160
				c-5.888,0-10.667,4.779-10.667,10.667v10.667h-96c-5.888,0-10.667,4.779-10.667,10.667c0,5.888,4.779,10.667,10.667,10.667h96
				v10.667c0,5.888,4.779,10.667,10.667,10.667h85.333c5.888,0,10.667-4.779,10.667-10.667V448h96
				c5.888,0,10.667-4.779,10.667-10.667c0-5.888-4.779-10.667-10.667-10.667h-96V416c0-5.888-4.779-10.667-10.667-10.667h-10.667
				v-10.667c0-5.888-4.779-10.667-10.667-10.667h-10.667v-21.333h245.333c29.397,0,53.333-23.936,53.333-53.333v-42.667
				c0-29.397-23.936-53.333-53.333-53.333H213.333V192H458.667z M224,426.667h10.667V448h-64v-21.333h10.667
				c5.888,0,10.667-4.779,10.667-10.667v-10.667h21.333V416C213.333,421.888,218.112,426.667,224,426.667z M458.667,234.667
				c17.643,0,32,14.357,32,32v42.667c0,17.643-14.357,32-32,32H53.333c-17.643,0-32-14.357-32-32v-42.667c0-17.643,14.357-32,32-32
				H458.667z M53.333,170.667c-17.643,0-32-14.357-32-32V96c0-17.643,14.357-32,32-32h405.333c17.643,0,32,14.357,32,32v42.667
				c0,17.643-14.357,32-32,32H53.333z"/>
			<path d="M437.333,85.333c-5.888,0-10.667,4.779-10.667,10.667v42.667c0,5.888,4.779,10.667,10.667,10.667
				c5.888,0,10.667-4.779,10.667-10.667V96C448,90.112,443.221,85.333,437.333,85.333z"/>
			<path d="M309.333,85.333c-5.888,0-10.667,4.779-10.667,10.667v42.667c0,5.888,4.779,10.667,10.667,10.667
				S320,144.555,320,138.667V96C320,90.112,315.221,85.333,309.333,85.333z"/>
			<path d="M352,85.333c-5.888,0-10.667,4.779-10.667,10.667v42.667c0,5.888,4.779,10.667,10.667,10.667
				c5.888,0,10.667-4.779,10.667-10.667V96C362.667,90.112,357.888,85.333,352,85.333z"/>
		</g>
	</g>
</g>
<g>
</g>
<g>
</g>
<g>
</g>
<g>
</g>
<g>
</g>
<g>
</g>
<g>
</g>
<g>
</g>
<g>
</g>
<g>
</g>
<g>
</g>
<g>
</g>
<g>
</g>
<g>
</g>
<g>
</g>
</svg>
